<?xml version="1.0" encoding="utf-8"?>
<!-- Generator: Adobe Illustrator 27.5.0, SVG Export Plug-In . SVG Version: 6.00 Build 0)  -->
<svg version="1.1" id="Layer_1" xmlns="http://www.w3.org/2000/svg" xmlns:xlink="http://www.w3.org/1999/xlink" x="0px" y="0px"
	 viewBox="0 0 113 59" style="enable-background:new 0 0 113 59;" xml:space="preserve">
<style type="text/css">
	.st0{fill:#D8D8D8;}
</style>
<path class="st0" d="M21.1,14.1L40.8,3.8c0.7-0.4,1.6-0.4,2.4,0L65,14.1c0.9,0.4,1.5,1.4,1.5,2.4v26.2c0,1-0.6,1.9-1.5,2.4
	L44.4,55.2c-0.8,0.4-1.6,0.4-2.4,0L21.1,44.6c-0.9-0.5-1.5-1.4-1.5-2.4V16.5C19.6,15.5,20.2,14.6,21.1,14.1z"/>
<path class="st0" d="M106.6,53.8h-7.9c-1.3,0-2.3-1.1-2.3-2.3v-44c0-1.3,1.1-2.3,2.3-2.3h7.9c1.3,0,2.3,1.1,2.3,2.3v44
	C108.9,52.8,107.9,53.8,106.6,53.8z"/>
</svg>
