<?xml version="1.0" encoding="utf-8"?>
<!-- Generator: Adobe Illustrator 27.5.0, SVG Export Plug-In . SVG Version: 6.00 Build 0)  -->
<svg version="1.1" id="Layer_1" xmlns="http://www.w3.org/2000/svg" xmlns:xlink="http://www.w3.org/1999/xlink" x="0px" y="0px"
	 viewBox="0 0 512 512" style="enable-background:new 0 0 512 512;" xml:space="preserve">
<style type="text/css">
	.st0{fill:#FFFFFF;stroke:#000000;stroke-miterlimit:10;}
</style>
<rect class="st0" width="512" height="512"/>
<path d="M184.7,264.9h26.7v17.8h-26.7V264.9z M229.3,282.8H256v-17.8h-26.7V282.8z M184.7,318.4h26.7v-17.8h-26.7V318.4z
	 M229.3,318.4H256v-17.8h-26.7V318.4z M184.7,211.4h26.7v-17.8h-26.7V211.4z M229.3,211.4H256v-17.8h-26.7V211.4z M184.7,247.1h26.7
	v-17.8h-26.7V247.1z M229.3,247.1H256v-17.8h-26.7V247.1z M363,220.3V363H149V175.8c0-14.8,12-26.8,26.8-26.8h89.2
	c14.8,0,26.8,12,26.8,26.8v17.8h44.6C351,193.6,363,205.6,363,220.3z M273.8,175.8c0-4.9-4-8.9-8.9-8.9h-89.2c-4.9,0-8.9,4-8.9,8.9
	v169.4h107V175.8z M345.2,220.3c0-4.9-4-8.9-8.9-8.9h-44.6v133.7h53.5V220.3z M309.5,282.8h17.8v-17.8h-17.8V282.8z M309.5,318.4
	h17.8v-17.8h-17.8V318.4z M309.5,247.1h17.8v-17.8h-17.8V247.1z"/>
</svg>
