<?xml version="1.0" encoding="utf-8"?>
<!-- Generator: Adobe Illustrator 27.5.0, SVG Export Plug-In . SVG Version: 6.00 Build 0)  -->
<svg version="1.1" id="Layer_1" xmlns="http://www.w3.org/2000/svg" xmlns:xlink="http://www.w3.org/1999/xlink" x="0px" y="0px"
	 viewBox="0 0 512 512" style="enable-background:new 0 0 512 512;" xml:space="preserve">
<path d="M252.7,499.1c-5.1,9-15.1,14-25.4,12.7l-11.6-1.5c-63.2-7.9-103.9-70.9-85.2-131.7l14.2-46c-8.7-0.2-16.5-0.5-23.5-1
	c-15.5-1.2-29.7-3.8-42.6-10.6c-26.6-14-45.7-39-52.3-68.4c-3.2-14.2-1.9-28.7,1-43.9c2.8-14.9,7.8-33.1,13.9-55.4l12-43.9
	c0.4-1.6,0.9-3.1,1.3-4.7C62,76.9,67.6,56,80.1,39.8c10.9-14.2,25.4-25.2,42-32.1C141,0,162.7,0,191.5,0c49.2,0,98.4,0,147.6,0
	c20.6,0,37.6,0,51.5,1.1c14.4,1.2,27.6,3.7,40,10c19.3,9.8,34.9,25.5,44.8,44.8c6.3,12.4,8.9,25.7,10,40c1.1,13.9,1.1,30.9,1.1,51.5
	v57.4c0,1.2,0,2.4,0,3.5c0,20.4,0,35.5-3.5,48.6c-9.5,35.3-37.1,62.9-72.4,72.4c-13.1,3.5-28.2,3.5-48.6,3.5c-1.2,0-2.3,0-3.5,0
	c-6.6,0-12.8,3.6-16.1,9.3L252.7,499.1z M370.5,51.4c4.4,7.6,7.8,15.8,10.1,24.5c3.5,13.1,3.5,28.2,3.5,48.6c0,1.2,0,2.3,0,3.5
	v153.3c6.6-0.2,10.2-0.7,13.3-1.5c17.7-4.7,31.5-18.5,36.2-36.2c1.5-5.7,1.7-13.4,1.7-38.9v-56.3c0-21.9,0-36.8-1-48.4
	c-0.9-11.2-2.6-17-4.6-21c-4.9-9.6-12.7-17.5-22.4-22.4c-4-2-9.7-3.7-21-4.6C381.7,51.8,376.5,51.6,370.5,51.4z M332.9,286.5V128
	c0-25.5-0.2-33.2-1.7-38.9c-4.7-17.7-18.5-31.5-36.2-36.2c-5.7-1.5-13.4-1.7-38.9-1.7h-59.7c-35.9,0-46.5,0.5-54.7,3.9
	c-8.3,3.4-15.5,8.9-21,16c-5.4,7.1-8.7,17.1-18.1,51.8l-11.7,42.9c-6.4,23.6-10.8,39.8-13.2,52.5c-2.4,12.6-2.2,19-1.3,23.3
	c3.3,14.7,12.8,27.2,26.1,34.2c3.9,2,10,3.9,22.8,4.9c12.9,1,29.7,1,54.1,1c8.1,0,15.8,3.9,20.6,10.4c4.8,6.5,6.3,15,3.9,22.7
	l-24.3,79c-8.8,28.7,8.8,58.4,37.4,64.9L298,316.7C306,302.7,318.4,292.2,332.9,286.5z"/>
</svg>
