<?xml version="1.0" encoding="utf-8"?>
<!-- Generator: Adobe Illustrator 27.5.0, SVG Export Plug-In . SVG Version: 6.00 Build 0)  -->
<svg version="1.1" id="Layer_1" xmlns="http://www.w3.org/2000/svg" xmlns:xlink="http://www.w3.org/1999/xlink" x="0px" y="0px"
	 viewBox="0 0 16 16" style="enable-background:new 0 0 16 16;" xml:space="preserve">
<path d="M8.1,0.4C8.3,0.1,8.6,0,8.9,0l0.4,0c2,0.2,3.2,2.2,2.7,4.1l-0.4,1.4c0.3,0,0.5,0,0.7,0c0.5,0,0.9,0.1,1.3,0.3
	c0.8,0.4,1.4,1.2,1.6,2.1c0.1,0.4,0.1,0.9,0,1.4c-0.1,0.5-0.2,1-0.4,1.7l-0.4,1.4c0,0,0,0.1,0,0.1c-0.2,0.9-0.4,1.5-0.8,2
	c-0.3,0.4-0.8,0.8-1.3,1C11.6,16,10.9,16,10,16c-1.5,0-3.1,0-4.6,0c-0.6,0-1.2,0-1.6,0c-0.4,0-0.9-0.1-1.3-0.3
	c-0.6-0.3-1.1-0.8-1.4-1.4c-0.2-0.4-0.3-0.8-0.3-1.3c0-0.4,0-1,0-1.6V9.6c0,0,0-0.1,0-0.1c0-0.6,0-1.1,0.1-1.5
	c0.3-1.1,1.2-2,2.3-2.3c0.4-0.1,0.9-0.1,1.5-0.1c0,0,0.1,0,0.1,0c0.2,0,0.4-0.1,0.5-0.3L8.1,0.4z M4.4,14.4
	c-0.1-0.2-0.2-0.5-0.3-0.8C4,13.2,4,12.7,4,12.1c0,0,0-0.1,0-0.1V7.2c-0.2,0-0.3,0-0.4,0C3,7.4,2.6,7.8,2.5,8.4
	c0,0.2-0.1,0.4-0.1,1.2v1.8c0,0.7,0,1.2,0,1.5c0,0.4,0.1,0.5,0.1,0.7c0.2,0.3,0.4,0.5,0.7,0.7c0.1,0.1,0.3,0.1,0.7,0.1
	C4.1,14.4,4.2,14.4,4.4,14.4z M5.6,7v5c0,0.8,0,1,0.1,1.2c0.1,0.6,0.6,1,1.1,1.1c0.2,0,0.4,0.1,1.2,0.1h1.9c1.1,0,1.5,0,1.7-0.1
	c0.3-0.1,0.5-0.3,0.7-0.5c0.2-0.2,0.3-0.5,0.6-1.6l0.4-1.3c0.2-0.7,0.3-1.2,0.4-1.6c0.1-0.4,0.1-0.6,0-0.7c-0.1-0.5-0.4-0.9-0.8-1.1
	c-0.1-0.1-0.3-0.1-0.7-0.2c-0.4,0-0.9,0-1.7,0c-0.3,0-0.5-0.1-0.6-0.3C9.6,6.7,9.6,6.4,9.6,6.2l0.8-2.5c0.3-0.9-0.3-1.8-1.2-2
	L6.7,6.1C6.4,6.5,6.1,6.9,5.6,7z"/>
</svg>
